<svg xmlns="http://www.w3.org/2000/svg" width="100" height="111.363" viewBox="0 0 100 111.363">
  <g id="ecology-svgrepo-com" transform="translate(68.699 82)">
    <g>
      <g transform="translate(9 5)">
        <path d="M114.155,27.573,66.428.3a2.268,2.268,0,0,0-2.255,0L16.446,27.573A2.272,2.272,0,0,0,15.3,29.545V81.818a2.27,2.27,0,0,0,1.145,1.973l47.727,27.273a2.268,2.268,0,0,0,2.255,0l47.727-27.273a2.273,2.273,0,0,0,1.146-1.973V29.545A2.273,2.273,0,0,0,114.155,27.573Zm-3.4,52.927L65.3,106.477,19.846,80.5V30.864L65.3,4.887l45.454,25.977Z" transform="translate(-93 -87)" fill="green"/>
        <path d="M86.979,120.464a2.174,2.174,0,1,0,4.348,0c0-21.615,22.42-27.946,33.391-29.75L83.231,134.179a2.173,2.173,0,0,0,3.144,3l45.652-47.826a2.172,2.172,0,0,0,.406-2.407,2.132,2.132,0,0,0-2.094-1.265C129.909,85.71,86.979,88.342,86.979,120.464Z" transform="translate(-135.329 -143.081)" fill="green"/>
        <path d="M147.357,122.944c-3.294,11.954-5.89,21.366-25.531,19.343a2.219,2.219,0,0,0-2.471,2.007,2.252,2.252,0,0,0,2,2.471,50.83,50.83,0,0,0,5.321.295c18.7,0,22.039-12.121,25.015-22.921,1.64-5.958,3.337-12.123,7.493-16.276a2.25,2.25,0,1,0-3.182-3.182C151.011,109.676,149.155,116.423,147.357,122.944Z" transform="translate(-158.043 -156.859)" fill="green"/>
      </g>
    </g>
  </g>
</svg>
