<svg xmlns="http://www.w3.org/2000/svg" width="100" height="100" viewBox="0 0 100 100">
  <g id="euro-svgrepo-com" transform="translate(208 195)">
    <g id="Group_5" data-name="Group 5" transform="translate(-208 -195)">
      <g id="Group_4" data-name="Group 4">
        <path id="Path_8" data-name="Path 8" d="M50,0a50,50,0,1,0,50,50A50,50,0,0,0,50,0Zm0,95A45,45,0,1,1,95,50,45.051,45.051,0,0,1,50,95Z" fill="gold"/>
      </g>
    </g>
    <g id="Group_7" data-name="Group 7" transform="translate(256.905 59.491)">
      <g id="Group_6" data-name="Group 6" transform="translate(-551 -344)">
        <path id="Path_9" data-name="Path 9" d="M158.774,153.372a2.649,2.649,0,0,0-1.55-1.139,2.709,2.709,0,0,0-1.957.082,2.479,2.479,0,0,0-1.386,1.712,14.231,14.231,0,0,1-6.442,7.91,21.422,21.422,0,0,1-11.579,3.1q-8.073,0-13.374-4.566-5.709-4.809-7.257-14.106H144.42a2.83,2.83,0,0,0,1.957-.734,2.02,2.02,0,0,0,.816-1.468,1.756,1.756,0,0,0-.489-1.468,2.544,2.544,0,0,0-1.875-.652H114.74v-4.975h30.578a2.83,2.83,0,0,0,1.957-.734,2.02,2.02,0,0,0,.816-1.468,1.756,1.756,0,0,0-.489-1.468,2.544,2.544,0,0,0-1.875-.652H115.065q1.712-8.807,7.421-13.863a19.708,19.708,0,0,1,13.374-4.893,21.571,21.571,0,0,1,11.253,2.691,13.9,13.9,0,0,1,6.2,8.155,3.032,3.032,0,0,0,1.386,1.875,2.708,2.708,0,0,0,1.875.327,2.08,2.08,0,0,0,1.468-.9,2.446,2.446,0,0,0,.407-2.039,16.623,16.623,0,0,0-6.278-10.03q-6.116-4.564-16.308-4.566a24.482,24.482,0,0,0-17.043,6.442q-6.933,6.283-8.726,16.8h-4.4a2.542,2.542,0,0,0-1.875.652,1.867,1.867,0,0,0-.652,1.468,1.734,1.734,0,0,0,.489,1.468,2.032,2.032,0,0,0,1.712.734h4.321v4.975h-4a2.542,2.542,0,0,0-1.875.652,1.867,1.867,0,0,0-.652,1.468,1.734,1.734,0,0,0,.489,1.468,2.032,2.032,0,0,0,1.712.734h4.73q1.712,11.009,8.562,17.124,6.685,6.038,17.206,6.035,9.947,0,16.227-4.812a20.6,20.6,0,0,0,6.769-9.133A2.8,2.8,0,0,0,158.774,153.372Z" transform="translate(0 0)" fill="gold"/>
      </g>
    </g>
  </g>
</svg>
